# xmcd
#
# Track frame offsets:
#	150
#	16986
#	35050
#	48477
#	65088
#	83983
#	97696
#	117447
#	132388
#	146777
#
# Disc length: 2145 seconds
#
# Revision: 1
# Processed by: cddbd v1.4PL0 Copyright (c) Steve Scherf et al.
# Submitted via: EasyCDDAExtractor 5.1.0
#
DISCID=8e085f0a
DTITLE=Emmylou Harris - Songs Of The West
DYEAR=1994
DGENRE=Country
TTITLE0=I'll Be Your San Antone Rose
TTITLE1=Even Cowgirls Get The Blues
TTITLE2=Amarillo
TTITLE3=The Sweetheart Of The Rodeo
TTITLE4=Queen Of The Silver Dollar
TTITLE5=One Paper Kid
TTITLE6=Rose of Cimmarron
TTITLE7=Spanish Is A Loving Tongue
TTITLE8=Cattle Call
TTITLE9=Montana Cowgirl
EXTD=
EXTT0=
EXTT1=
EXTT2=
EXTT3=
EXTT4=
EXTT5=
EXTT6=
EXTT7=
EXTT8=
EXTT9=
PLAYORDER=
